<?xml version="1.0" standalone="no"?>
<!DOCTYPE svg PUBLIC "-//W3C//DTD SVG 20010904//EN"
 "http://www.w3.org/TR/2001/REC-SVG-20010904/DTD/svg10.dtd">
<svg version="1.0" xmlns="http://www.w3.org/2000/svg"
 width="356.000000pt" height="226.000000pt" viewBox="0 0 356.000000 226.000000"
 preserveAspectRatio="xMidYMid meet">

<g transform="translate(0.000000,226.000000) scale(0.100000,-0.100000)"
fill="#000000" stroke="none">
<path d="M87 2242 c-15 -10 -37 -29 -50 -43 l-22 -24 -3 -532 -3 -533 178 -1
c215 -1 264 1 281 10 8 4 1 11 -20 19 -23 9 -39 25 -53 54 -30 63 -30 64 -9
49 10 -7 8 -3 -6 10 -14 13 -33 35 -43 49 -9 14 -25 25 -34 25 -9 0 -17 7 -18
16 -3 19 -36 59 -48 59 -4 0 -13 4 -20 10 -61 49 -86 73 -83 83 1 7 1 8 -2 4
-8 -15 -32 15 -32 40 0 13 -4 22 -9 18 -13 -7 -21 8 -13 22 8 13 57 24 66 15
4 -3 16 -7 28 -9 12 -2 25 -8 29 -14 4 -7 8 -7 10 -1 2 5 13 12 24 15 16 4 31
-9 73 -63 28 -38 52 -79 53 -92 0 -22 1 -22 9 -3 7 19 8 19 15 2 5 -12 10 -15
15 -7 10 17 32 3 65 -41 16 -22 35 -37 42 -35 7 3 21 2 30 -1 15 -6 14 -8 -7
-14 -24 -7 -24 -7 5 -8 17 -1 41 -10 54 -20 14 -10 31 -16 40 -13 10 4 13 1 8
-10 -4 -11 -1 -14 12 -11 11 3 21 -4 29 -21 10 -22 8 -27 -11 -41 -12 -8 -17
-15 -13 -15 18 0 45 32 39 46 -3 8 -1 14 5 14 16 0 23 -31 11 -46 -9 -12 -9
-13 4 -9 10 4 18 -1 22 -16 5 -13 3 -25 -2 -26 -6 -2 -19 -11 -29 -19 -18 -14
-18 -15 4 -4 27 13 31 -3 5 -20 -17 -11 -17 -11 0 -6 10 3 32 6 49 6 25 0 28
3 19 14 -9 10 -8 16 3 25 8 7 12 20 9 29 -6 15 -5 16 13 2 31 -24 34 -33 17
-52 -15 -17 -8 -18 155 -18 167 0 172 1 172 21 0 11 4 17 10 14 6 -3 7 1 4 9
-3 9 -9 16 -13 16 -4 0 -8 6 -9 13 -1 6 -5 27 -8 45 -5 23 -3 32 7 32 10 0 11
2 2 8 -8 5 -4 16 13 37 20 25 26 28 34 15 5 -8 10 -11 10 -7 0 4 10 -1 21 -12
17 -15 20 -26 15 -48 -6 -24 -6 -26 6 -11 9 11 25 16 53 14 22 -1 45 0 50 3
22 12 39 9 57 -12 19 -22 19 -22 2 6 -16 26 -16 28 2 42 10 7 21 10 24 7 9
-12 48 -13 89 -2 41 11 72 43 86 90 4 14 13 28 19 32 13 9 36 -10 37 -31 0
-10 3 -11 6 -4 2 7 -3 23 -11 35 -25 36 -18 46 9 13 14 -16 26 -41 26 -55 2
-25 2 -25 6 -1 3 16 -5 35 -26 61 -36 45 -38 60 -13 83 24 22 27 22 58 -10 15
-16 22 -20 15 -10 -16 21 1 23 22 2 8 -8 18 -11 21 -7 4 3 11 0 16 -8 7 -10
10 -11 10 -2 0 6 5 12 11 12 7 0 8 -12 5 -32 l-6 -33 14 30 14 30 -3 -47 c-2
-29 2 -59 11 -77 12 -23 12 -35 4 -51 -9 -17 -7 -24 15 -44 15 -14 33 -22 44
-19 18 5 39 -13 28 -23 -3 -3 -23 -7 -45 -8 -22 -2 -45 -7 -52 -11 -9 -5 -10
-1 -6 16 5 17 4 20 -3 9 -5 -8 -10 -33 -11 -55 -4 -80 -9 -75 85 -75 l85 0 -6
24 c-4 16 0 34 10 48 9 12 16 18 16 13 0 -5 7 1 16 13 26 37 36 24 14 -18 -12
-23 -24 -38 -29 -36 -4 3 -6 -6 -3 -19 4 -23 8 -25 67 -25 48 0 64 4 69 16 3
8 10 12 16 9 5 -3 10 -1 10 4 0 16 27 13 33 -3 3 -8 1 -17 -6 -20 -7 -2 -2 -5
10 -5 12 -1 25 4 29 10 5 8 8 8 13 0 7 -11 583 -17 601 -6 6 3 10 -2 10 -12 0
-14 2 -15 9 -4 5 7 14 10 20 7 6 -4 14 0 17 8 8 22 28 20 20 -1 -4 -12 0 -10
10 5 9 12 23 22 30 22 8 0 14 5 14 10 0 12 20 13 39 1 11 -7 10 -14 -4 -37
l-17 -29 22 28 c12 15 26 24 31 21 6 -3 5 -12 -3 -22 -10 -14 -9 -14 8 1 17
14 27 15 47 8 14 -5 122 -10 241 -11 l216 0 0 536 c0 524 0 537 -20 565 -12
16 -36 33 -58 39 -25 6 -591 10 -1702 10 -1596 0 -1666 -1 -1693 -18z m159
-143 c10 -11 34 -29 53 -41 20 -12 46 -30 57 -40 24 -21 30 -17 44 32 7 25 6
30 -8 31 -14 0 -13 2 3 10 16 7 13 8 -13 4 -20 -3 -31 -1 -27 5 3 6 12 10 20
10 7 0 15 7 19 15 3 9 18 15 34 15 27 0 30 -4 41 -57 20 -90 18 -87 48 -63 16
12 49 34 74 50 27 16 52 41 60 59 16 36 29 40 29 10 0 -11 4 -18 10 -14 5 3 8
-9 6 -29 -1 -19 1 -33 5 -30 10 6 -1 -120 -11 -133 -2 -2 -3 -6 -4 -10 -1 -5
-11 -25 -21 -46 -20 -41 -90 -82 -119 -71 -14 5 -15 3 -6 -21 16 -42 37 -68
45 -56 3 6 10 9 14 6 5 -2 13 7 20 21 10 24 12 24 28 8 16 -16 15 -19 -22 -50
-22 -19 -56 -42 -75 -52 -23 -11 -34 -23 -32 -34 3 -14 -9 -16 -87 -16 -85 0
-90 1 -81 18 8 14 5 19 -13 24 -12 3 -44 26 -71 50 -45 39 -48 45 -34 59 14
14 17 13 28 -8 7 -14 17 -22 22 -19 4 3 8 -1 8 -8 0 -16 27 22 40 57 9 23 8
26 -6 21 -16 -6 -94 31 -94 45 0 4 6 10 13 13 6 4 2 4 -11 2 -12 -2 -20 0 -16
5 3 5 0 9 -6 9 -6 0 -9 4 -6 9 3 5 -1 12 -10 15 -8 3 -13 10 -9 15 3 5 1 12
-4 15 -5 3 -7 22 -5 41 2 24 -1 33 -8 29 -7 -4 -8 -3 -4 5 12 19 27 2 22 -26
-3 -14 -2 -23 1 -19 15 14 12 46 -6 58 -11 8 -16 22 -14 38 2 14 4 35 5 47 0
13 4 21 9 18 4 -3 11 11 15 31 l7 37 12 -37 c7 -21 21 -46 31 -57z m1574 -162
l0 -84 -40 -1 c-45 -2 -60 15 -60 67 0 34 36 66 64 55 12 -5 16 0 16 20 0 14
5 26 10 26 6 0 10 -34 10 -83z m940 59 c0 -19 4 -23 19 -19 27 7 51 -33 51
-84 0 -32 -4 -43 -15 -43 -8 0 -15 3 -16 8 0 4 -1 24 -3 45 -2 20 -6 40 -9 43
-14 14 -27 -11 -27 -52 0 -32 -4 -44 -15 -44 -12 0 -15 16 -15 85 0 69 3 85
15 85 9 0 15 -9 15 -24z m-1738 -18 l3 -33 18 33 c10 19 25 32 37 32 17 0 17
-2 -5 -26 -31 -33 -31 -35 2 -91 23 -39 24 -45 8 -42 -18 4 -29 18 -39 52 -8
27 -26 11 -26 -24 0 -19 -5 -29 -15 -29 -12 0 -15 16 -15 80 0 63 3 80 14 80
9 0 16 -12 18 -32z m558 -48 c0 -64 -3 -80 -15 -80 -12 0 -15 16 -15 80 0 64
3 80 15 80 12 0 15 -16 15 -80z m750 70 c0 -5 -7 -10 -15 -10 -8 0 -15 5 -15
10 0 6 7 10 15 10 8 0 15 -4 15 -10z m255 0 c-3 -5 -12 -7 -19 -4 -7 3 -18 -2
-25 -10 -10 -11 -6 -18 19 -36 29 -21 38 -49 24 -84 -9 -22 -84 -22 -84 0 0
12 7 14 30 9 48 -10 51 20 6 56 -40 34 -45 53 -18 68 22 13 75 14 67 1z
m-1255 -15 c0 -8 7 -15 15 -15 8 0 15 -4 15 -10 0 -5 -7 -10 -15 -10 -11 0
-15 -11 -15 -35 0 -22 6 -38 15 -41 23 -9 18 -24 -9 -24 -27 0 -36 16 -36 64
0 40 -7 48 -31 35 -14 -7 -19 -21 -19 -54 0 -25 -4 -45 -10 -45 -6 0 -10 26
-10 58 0 61 0 61 52 63 9 0 19 7 22 15 7 19 26 18 26 -1z m1670 -5 c24 -24 25
-30 5 -30 -11 0 -15 -11 -15 -35 0 -22 6 -38 15 -41 23 -9 18 -24 -9 -24 -22
0 -24 4 -28 58 -4 54 0 92 8 92 2 0 13 -9 24 -20z m-1816 -16 c10 -10 16 -33
16 -63 l0 -48 -40 -1 c-29 -1 -42 3 -49 17 -13 23 12 61 40 61 10 0 19 5 19
10 0 6 -11 10 -24 10 -30 0 -43 17 -19 23 33 8 41 7 57 -9z m500 0 c21 -21 22
-114 2 -114 -11 0 -16 14 -18 47 -2 36 -7 49 -20 51 -15 3 -18 -4 -18 -47 0
-39 -4 -51 -15 -51 -12 0 -15 13 -15 59 0 54 2 60 23 64 40 8 45 7 61 -9z
m246 -2 c25 -21 30 -73 9 -98 -15 -19 -64 -18 -83 2 -22 22 -20 70 4 94 25 25
41 25 70 2z m124 2 c21 -21 22 -114 2 -114 -11 0 -16 14 -18 47 -4 66 -28 70
-28 4 0 -44 -3 -51 -20 -51 -18 0 -20 7 -20 61 0 56 2 61 20 56 11 -3 20 -1
20 4 0 14 27 10 44 -7z m120 0 c9 -8 16 -26 16 -40 0 -21 -5 -24 -36 -24 -24
0 -34 -4 -31 -12 2 -7 17 -13 32 -13 16 -1 30 -6 33 -13 2 -8 -10 -12 -37 -12
-30 0 -43 5 -51 19 -16 31 -12 69 10 91 24 24 43 25 64 4z m94 -1 c2 -8 -5
-13 -17 -13 -28 0 -26 -6 7 -35 22 -20 25 -27 16 -42 -14 -23 -74 -31 -74 -10
0 10 7 13 19 10 29 -8 33 13 6 31 -14 9 -25 25 -25 36 0 33 57 53 68 23z m143
7 c15 -9 19 -22 19 -64 l0 -53 -35 -1 c-44 -2 -62 24 -39 56 8 12 22 22 30 22
8 0 14 5 14 10 0 6 -9 10 -20 10 -30 0 -24 21 8 29 2 1 12 -4 23 -9z m283 -6
c9 -8 16 -26 16 -40 0 -21 -5 -24 -36 -24 -24 0 -34 -4 -31 -12 2 -7 17 -13
32 -13 16 -1 30 -6 33 -13 5 -16 -70 -16 -86 0 -21 21 -15 85 10 102 28 20 43
20 62 0z m227 6 c15 -9 19 -22 19 -65 l0 -55 -40 0 c-28 0 -42 5 -49 18 -13
24 12 62 40 62 10 0 19 5 19 10 0 6 -13 10 -30 10 -46 0 -36 22 13 29 5 0 17
-4 28 -9z m-1509 -47 c4 -66 28 -70 28 -4 0 39 4 51 15 51 12 0 15 -13 15 -61
l0 -60 -42 3 -43 3 -3 58 c-2 45 0 57 12 57 11 0 16 -13 18 -47z m918 -13 c0
-47 -3 -60 -15 -60 -12 0 -15 13 -15 60 0 47 3 60 15 60 12 0 15 -13 15 -60z
m883 -350 c4 -25 5 -61 2 -80 -3 -19 -5 -45 -5 -57 0 -13 -4 -23 -8 -24 -4 0
-20 -3 -37 -6 -39 -6 -51 -6 -101 -1 -49 6 -62 13 -64 36 -4 34 1 165 5 173 3
4 49 7 102 6 l97 -2 9 -45z m-3147 13 c-10 -10 -19 5 -10 18 6 11 8 11 12 0 2
-7 1 -15 -2 -18z m97 -186 c23 -19 36 -47 24 -47 -21 0 -67 35 -67 51 0 25 11
24 43 -4z m795 -23 c9 -17 8 -25 -8 -39 -17 -16 -19 -16 -30 5 -10 18 -8 25 7
40 10 9 19 17 19 16 1 0 6 -11 12 -22z m1740 -1 c-3 -12 -12 -17 -28 -16 -14
1 -19 -1 -12 -3 21 -9 13 -26 -9 -19 -15 5 -19 4 -15 -4 4 -6 2 -11 -5 -11 -7
0 -3 -10 10 -24 12 -13 23 -32 24 -44 0 -12 6 -18 14 -15 7 3 16 -2 19 -11 8
-20 -4 -35 -14 -20 -4 6 -17 14 -29 18 -20 6 -22 4 -20 -26 1 -18 6 -36 11
-39 5 -4 7 -12 4 -19 -2 -8 -14 4 -27 25 -15 26 -25 35 -30 26 -14 -22 -11 76
3 110 19 45 55 82 73 75 8 -3 11 -1 8 4 -3 6 1 10 10 10 10 0 15 -6 13 -17z
m-2444 -19 c3 -9 2 -22 -2 -30 -7 -13 -10 -13 -21 0 -9 10 -10 16 -3 16 6 0 9
7 6 15 -4 8 -2 15 4 15 5 0 13 -7 16 -16z m2514 -71 c2 -26 -1 -43 -7 -43 -6
0 -10 5 -8 11 1 6 -4 14 -11 16 -8 3 -10 -1 -6 -11 4 -11 1 -16 -10 -16 -9 0
-16 8 -16 19 0 10 -7 22 -16 25 -8 3 -12 2 -9 -3 3 -5 1 -12 -4 -15 -5 -3 -12
2 -15 11 -7 18 12 35 32 28 6 -2 12 3 12 11 0 11 8 14 28 12 24 -3 27 -7 30
-45z m70 19 c3 -17 -2 -25 -17 -29 -12 -3 -21 -12 -21 -19 0 -8 -4 -14 -10
-14 -5 0 -10 21 -10 46 0 44 1 45 28 42 19 -2 28 -9 30 -26z m34 -6 c4 -39 0
-56 -13 -56 -5 0 -9 20 -9 45 0 53 16 61 22 11z m63 24 c3 -5 -1 -10 -9 -10
-20 0 -21 -19 -1 -26 8 -4 15 -15 15 -25 0 -15 -7 -19 -32 -18 -24 1 -27 3
-10 6 27 5 27 8 1 34 -16 16 -18 23 -8 35 13 16 35 18 44 4z m85 2 c0 -4 -5
-13 -10 -18 -7 -7 -8 -19 -1 -37 9 -22 8 -27 -4 -27 -8 0 -15 8 -16 18 0 14
-2 14 -9 -3 -7 -15 -9 -9 -9 25 -1 31 2 41 9 30 8 -12 10 -12 16 3 6 17 24 24
24 9z m210 -2 c0 -5 9 -10 20 -10 16 0 20 -7 20 -35 0 -19 -4 -35 -10 -35 -5
0 -10 14 -10 31 0 17 -4 28 -10 24 -5 -3 -10 -17 -10 -31 0 -13 -4 -24 -10
-24 -5 0 -10 20 -10 45 0 25 5 45 10 45 6 0 10 -4 10 -10z m131 -47 l-5 -38
-6 35 c-6 37 -3 53 9 46 4 -3 5 -22 2 -43z m-283 15 c2 -13 -3 -18 -18 -18
-16 0 -20 -4 -16 -15 3 -8 1 -15 -4 -15 -15 0 -22 20 -16 46 5 19 12 25 29 22
12 -2 23 -11 25 -20z m62 12 c0 -5 -7 -7 -15 -4 -22 9 -19 -9 4 -23 17 -10 20
-9 25 13 8 29 39 30 44 1 2 -12 -3 -17 -18 -17 -14 0 -20 -5 -17 -12 2 -8 -4
-14 -17 -14 -23 -2 -61 40 -51 56 8 13 45 13 45 0z m198 -27 c2 -24 -1 -33
-12 -33 -10 0 -13 6 -10 15 4 8 1 15 -5 15 -6 0 -11 -7 -11 -15 0 -8 -4 -15
-10 -15 -19 0 -10 32 10 37 11 3 17 9 14 14 -3 5 -10 7 -15 4 -5 -4 -9 -1 -9
5 0 6 10 10 23 8 17 -2 23 -11 25 -35z m102 2 c0 -32 -2 -35 -30 -35 -35 0
-39 14 -10 32 23 15 27 33 5 24 -8 -3 -15 -1 -15 4 0 6 11 10 25 10 22 0 25
-4 25 -35z m70 0 c0 -19 -4 -35 -10 -35 -5 0 -10 11 -10 25 0 14 -4 25 -10 25
-5 0 -10 -11 -10 -25 0 -14 -4 -25 -10 -25 -5 0 -10 16 -10 35 0 32 2 35 30
35 28 0 30 -3 30 -35z m-3234 1 c-4 -15 -1 -26 7 -29 6 -2 9 -8 5 -12 -10 -10
-48 23 -48 41 0 12 14 21 34 23 4 1 5 -10 2 -23z m2130 -1 c-2 -7 1 -18 7 -25
10 -10 7 -12 -9 -8 -14 4 -27 -2 -38 -18 -10 -12 -25 -22 -34 -22 -10 0 -46
-2 -81 -6 -60 -6 -63 -6 -50 11 13 17 13 17 -7 1 -37 -32 -80 -15 -53 20 12
15 12 15 -7 0 -11 -10 -24 -18 -28 -18 -5 0 -5 8 -2 18 6 16 5 16 -8 0 -19
-25 -37 -22 -32 5 3 12 5 28 5 35 1 9 6 10 19 3 9 -5 22 -11 27 -13 6 -1 9 -5
8 -8 -1 -3 14 -5 33 -4 19 1 31 -2 28 -7 -8 -13 3 -11 35 5 17 9 32 11 42 5
27 -17 64 -9 88 20 15 19 29 27 43 23 10 -2 17 -10 14 -17z m-1586 -2 c-1 -16
-26 -40 -37 -36 -9 3 -10 10 -3 24 10 18 40 27 40 12z m-52 -15 c-3 -7 -13
-15 -24 -17 -16 -3 -17 -1 -5 13 16 19 34 21 29 4z m2069 -14 c-3 -3 -12 -4
-19 -1 -8 3 -5 6 6 6 11 1 17 -2 13 -5z m-2480 -55 c-1 -15 -6 -19 -22 -15
-18 5 -19 4 -2 -8 21 -16 22 -26 2 -26 -24 0 -29 29 -9 50 25 25 33 25 31 -1z
m2551 -23 c3 -14 -3 -16 -32 -14 -35 2 -56 22 -33 32 24 9 62 -1 65 -18z"/>
<path d="M176 2074 c-5 -12 2 -26 21 -43 l27 -26 -22 26 c-31 36 -28 47 6 18
l27 -24 -25 30 c-14 17 -26 31 -26 33 -1 2 -5 -5 -8 -14z"/>
<path d="M686 1993 c-6 -14 -5 -15 5 -6 7 7 10 15 7 18 -3 3 -9 -2 -12 -12z"/>
<path d="M346 1974 c-3 -9 -6 -33 -6 -55 0 -34 3 -39 23 -39 26 0 77 -67 77
-102 0 -14 5 -18 19 -13 15 5 20 -2 30 -40 6 -25 14 -45 17 -45 15 0 44 22 44
33 0 17 -52 67 -71 67 -9 1 -7 4 6 12 27 15 35 28 35 61 0 21 -5 27 -21 27
-16 0 -20 5 -16 20 4 16 0 20 -19 20 -21 0 -24 5 -24 35 0 35 0 35 -44 35 -31
0 -46 -5 -50 -16z m110 -109 c1 -9 -5 -15 -16 -15 -12 0 -17 6 -15 18 2 9 4
21 4 27 1 13 24 -12 27 -30z m45 -48 c-10 -9 -11 -8 -5 6 3 10 9 15 12 12 3
-3 0 -11 -7 -18z"/>
<path d="M464 1949 c-17 -18 -16 -19 19 -19 27 0 35 4 31 14 -9 24 -31 26 -50
5z"/>
<path d="M618 1883 c6 -2 18 -2 25 0 6 3 1 5 -13 5 -14 0 -19 -2 -12 -5z"/>
<path d="M380 1856 c0 -16 31 -66 41 -66 6 0 0 15 -12 33 -29 42 -29 41 -29
33z"/>
<path d="M347 1752 c-32 -34 -34 -48 -6 -62 24 -13 23 -14 36 25 6 17 14 38
18 48 11 27 -18 21 -48 -11z"/>
<path d="M1754 1936 c-11 -28 0 -61 21 -61 16 0 20 7 20 35 0 25 -5 36 -18 38
-9 2 -20 -3 -23 -12z"/>
<path d="M1141 1896 c-8 -10 -9 -16 -1 -21 13 -8 30 3 30 21 0 18 -14 18 -29
0z"/>
<path d="M1874 1936 c-10 -27 5 -68 24 -64 24 5 24 71 -1 76 -9 2 -20 -4 -23
-12z"/>
<path d="M2125 1940 c-3 -5 3 -10 14 -10 12 0 21 5 21 10 0 6 -6 10 -14 10 -8
0 -18 -4 -21 -10z"/>
<path d="M2387 1904 c-4 -4 -7 -14 -7 -23 0 -11 3 -12 11 -4 6 6 10 16 7 23
-2 6 -7 8 -11 4z"/>
<path d="M2640 1940 c0 -5 9 -10 20 -10 11 0 20 5 20 10 0 6 -9 10 -20 10 -11
0 -20 -4 -20 -10z"/>
<path d="M2881 1896 c-8 -10 -9 -16 -1 -21 13 -8 30 3 30 21 0 18 -14 18 -29
0z"/>
<path d="M3081 1579 c-18 -9 -41 -32 -50 -50 -17 -32 -17 -34 1 -65 25 -43 68
-61 108 -44 17 7 30 17 30 23 0 6 7 19 17 29 15 17 15 20 -3 53 -10 19 -30 43
-44 53 -24 18 -27 19 -59 1z m79 -83 c0 -49 -52 -73 -82 -38 -36 42 -24 83 28
94 25 6 54 -25 54 -56z"/>
<path d="M3093 1509 c-18 -18 12 -45 30 -27 11 10 12 15 1 25 -15 16 -17 16
-31 2z"/>
<path d="M2621 1264 c13 -17 26 -30 28 -27 3 2 -8 16 -24 31 l-28 27 24 -31z"/>
<path d="M2601 1213 c7 -12 15 -20 18 -17 3 2 -3 12 -13 22 -17 16 -18 16 -5
-5z"/>
<path d="M2800 1285 c0 -8 5 -15 10 -15 6 0 10 7 10 15 0 8 -4 15 -10 15 -5 0
-10 -7 -10 -15z"/>
<path d="M3045 1280 c-3 -5 -1 -10 4 -10 6 0 11 5 11 10 0 6 -2 10 -4 10 -3 0
-8 -4 -11 -10z"/>
<path d="M3165 1280 c-3 -5 -1 -10 4 -10 6 0 11 5 11 10 0 6 -2 10 -4 10 -3 0
-8 -4 -11 -10z"/>
<path d="M3405 1250 c-3 -5 -1 -10 4 -10 6 0 11 5 11 10 0 6 -2 10 -4 10 -3 0
-8 -4 -11 -10z"/>
<path d="M2348 1233 c7 -3 16 -2 19 1 4 3 -2 6 -13 5 -11 0 -14 -3 -6 -6z"/>
<path d="M2225 1220 c-3 -6 1 -7 9 -4 18 7 21 14 7 14 -6 0 -13 -4 -16 -10z"/>
<path d="M2293 1213 c9 -2 23 -2 30 0 6 3 -1 5 -18 5 -16 0 -22 -2 -12 -5z"/>
<path d="M161 1524 c0 -11 3 -14 6 -6 3 7 2 16 -1 19 -3 4 -6 -2 -5 -13z"/>
<path d="M271 1514 c0 -11 3 -14 6 -6 3 7 2 16 -1 19 -3 4 -6 -2 -5 -13z"/>
<path d="M1690 1503 c13 -18 25 -33 27 -33 8 0 -17 38 -33 51 -11 9 -9 2 6
-18z"/>
<path d="M1675 1473 c15 -24 29 -43 32 -43 8 0 -27 57 -43 71 -10 8 -5 -4 11
-28z"/>
<path d="M211 1484 c0 -11 3 -14 6 -6 3 7 2 16 -1 19 -3 4 -6 -2 -5 -13z"/>
<path d="M1766 1415 c8 -37 14 -45 14 -19 0 10 -5 26 -10 34 -8 11 -9 7 -4
-15z"/>
<path d="M341 1400 c0 -8 4 -22 9 -30 12 -18 12 -2 0 25 -6 13 -9 15 -9 5z"/>
<path d="M1631 1403 c-1 -6 -4 -20 -7 -30 -5 -15 -4 -15 5 -3 9 13 11 12 12
-5 0 -11 3 -15 5 -9 3 6 0 22 -5 35 -5 13 -10 19 -10 12z"/>
<path d="M1802 1380 c0 -19 2 -27 5 -17 2 9 2 25 0 35 -3 9 -5 1 -5 -18z"/>
<path d="M1723 1365 c0 -22 2 -30 4 -17 2 12 2 30 0 40 -3 9 -5 -1 -4 -23z"/>
<path d="M410 1371 c5 -11 15 -23 21 -27 6 -3 3 5 -6 20 -20 30 -30 35 -15 7z"/>
<path d="M445 1370 c10 -11 20 -20 23 -20 3 0 -3 9 -13 20 -10 11 -20 20 -23
20 -3 0 3 -9 13 -20z"/>
<path d="M1660 1350 c0 -5 5 -10 11 -10 5 0 7 5 4 10 -3 6 -8 10 -11 10 -2 0
-4 -4 -4 -10z"/>
<path d="M1822 1340 c0 -14 2 -19 5 -12 2 6 2 18 0 25 -3 6 -5 1 -5 -13z"/>
<path d="M336 1337 c3 -10 9 -15 12 -12 3 3 0 11 -7 18 -10 9 -11 8 -5 -6z"/>
<path d="M1620 1336 c0 -8 4 -17 9 -20 5 -4 7 3 4 14 -6 23 -13 26 -13 6z"/>
<path d="M1692 1325 c0 -16 2 -22 5 -12 2 9 2 23 0 30 -3 6 -5 -1 -5 -18z"/>
<path d="M415 1320 c10 -11 20 -20 23 -20 3 0 -3 9 -13 20 -10 11 -20 20 -23
20 -3 0 3 -9 13 -20z"/>
<path d="M477 1309 c7 -7 15 -10 18 -7 3 3 -2 9 -12 12 -14 6 -15 5 -6 -5z"/>
<path d="M1772 1300 c0 -14 2 -19 5 -12 2 6 2 18 0 25 -3 6 -5 1 -5 -13z"/>
<path d="M362 1299 c4 -12 48 -46 48 -37 0 2 -12 15 -26 27 -15 13 -24 17 -22
10z"/>
<path d="M390 1307 c0 -3 12 -12 26 -22 15 -9 23 -12 20 -6 -7 11 -46 35 -46
28z"/>
<path d="M1741 1298 c0 -9 -4 -25 -7 -35 -5 -17 -5 -17 6 0 6 10 9 25 7 35 -4
15 -5 15 -6 0z"/>
<path d="M1554 1284 c-18 -14 -18 -15 4 -4 12 6 22 13 22 15 0 8 -5 6 -26 -11z"/>
<path d="M1191 1274 c0 -11 3 -14 6 -6 3 7 2 16 -1 19 -3 4 -6 -2 -5 -13z"/>
<path d="M1221 1274 c0 -11 3 -14 6 -6 3 7 2 16 -1 19 -3 4 -6 -2 -5 -13z"/>
<path d="M1646 1275 c-3 -9 -10 -14 -15 -11 -5 3 -15 -2 -22 -12 -12 -15 -12
-16 2 -5 9 7 18 11 21 8 3 -3 11 1 18 10 7 9 11 18 8 21 -3 3 -8 -2 -12 -11z"/>
<path d="M1667 1257 l-17 -32 20 24 c17 20 26 41 18 41 -2 0 -11 -15 -21 -33z"/>
<path d="M1419 1268 c7 -10 17 -15 22 -12 5 3 19 0 31 -6 21 -10 21 -10 -2 9
-14 11 -27 16 -28 10 -3 -6 -11 -5 -20 3 -15 12 -16 11 -3 -4z"/>
<path d="M1560 1259 c-19 -10 -28 -19 -20 -19 8 0 26 9 40 20 31 25 25 24 -20
-1z"/>
<path d="M1700 1259 c-7 -11 -10 -23 -7 -25 2 -2 9 7 15 21 14 30 7 33 -8 4z"/>
<path d="M1791 1264 c0 -11 3 -14 6 -6 3 7 2 16 -1 19 -3 4 -6 -2 -5 -13z"/>
<path d="M508 1243 c12 -2 30 -2 40 0 9 3 -1 5 -23 4 -22 0 -30 -2 -17 -4z"/>
<path d="M1770 1225 c-7 -9 -11 -17 -9 -20 3 -2 10 5 17 15 14 24 10 26 -8 5z"/>
<path d="M420 1226 c0 -2 7 -7 16 -10 8 -3 12 -2 9 4 -6 10 -25 14 -25 6z"/>
<path d="M498 1223 c7 -3 16 -2 19 1 4 3 -2 6 -13 5 -11 0 -14 -3 -6 -6z"/>
<path d="M640 1220 c-8 -5 -10 -10 -5 -10 6 0 17 5 25 10 8 5 11 10 5 10 -5 0
-17 -5 -25 -10z"/>
<path d="M1180 1225 c0 -5 5 -17 10 -25 5 -8 10 -10 10 -5 0 6 -5 17 -10 25
-5 8 -10 11 -10 5z"/>
<path d="M1291 1225 c0 -5 6 -19 14 -29 8 -11 15 -15 15 -10 0 6 -7 19 -15 30
-8 10 -14 15 -14 9z"/>
<path d="M1390 1226 c0 -2 8 -10 18 -17 15 -13 16 -12 3 4 -13 16 -21 21 -21
13z"/>
<path d="M1442 1214 c10 -10 20 -16 22 -13 3 3 -5 11 -17 18 -21 13 -21 12 -5
-5z"/>
<path d="M1498 1223 c12 -2 32 -2 45 0 12 2 2 4 -23 4 -25 0 -35 -2 -22 -4z"/>
<path d="M1575 1215 c-16 -8 -23 -14 -15 -14 8 0 26 6 40 14 32 18 15 18 -25
0z"/>
<path d="M1675 1188 l-40 -43 43 40 c39 36 47 45 39 45 -2 0 -21 -19 -42 -42z"/>
<path d="M390 1215 c0 -7 61 -37 66 -33 2 3 -12 12 -31 21 -19 9 -35 15 -35
12z"/>
<path d="M1619 1203 c-13 -16 -12 -17 4 -4 16 13 21 21 13 21 -2 0 -10 -8 -17
-17z"/>
<path d="M1655 1209 c-4 -6 -5 -12 -2 -15 2 -3 7 2 10 11 7 17 1 20 -8 4z"/>
<path d="M1711 1186 l-24 -31 28 27 c16 15 27 29 24 31 -2 3 -15 -10 -28 -27z"/>
<path d="M1160 1205 c0 -5 5 -17 10 -25 5 -8 10 -10 10 -5 0 6 -5 17 -10 25
-5 8 -10 11 -10 5z"/>
<path d="M1352 1185 c15 -16 29 -27 31 -24 3 2 -10 15 -27 28 l-31 24 27 -28z"/>
<path d="M1374 1201 c7 -11 46 -35 46 -28 0 3 -12 12 -26 22 -15 9 -23 12 -20
6z"/>
<path d="M523 1193 c9 -2 23 -2 30 0 6 3 -1 5 -18 5 -16 0 -22 -2 -12 -5z"/>
<path d="M1280 1193 c1 -12 38 -58 43 -53 3 3 -6 18 -19 33 -13 15 -24 24 -24
20z"/>
<path d="M470 1180 c0 -5 5 -10 11 -10 5 0 7 5 4 10 -3 6 -8 10 -11 10 -2 0
-4 -4 -4 -10z"/>
<path d="M1457 1179 c7 -7 15 -10 18 -7 3 3 -2 9 -12 12 -14 6 -15 5 -6 -5z"/>
<path d="M1719 1153 l-34 -38 38 34 c20 19 37 36 37 38 0 8 -8 0 -41 -34z"/>
<path d="M1765 1170 c-10 -11 -16 -22 -14 -24 2 -2 12 7 22 20 22 29 17 32 -8
4z"/>
<path d="M660 1170 c-9 -6 -10 -10 -3 -10 6 0 15 5 18 10 8 12 4 12 -15 0z"/>
<path d="M698 1164 c-38 -20 -36 -28 2 -9 17 9 30 18 30 20 0 7 -1 6 -32 -11z"/>
<path d="M1275 1150 c10 -11 20 -20 23 -20 3 0 -3 9 -13 20 -10 11 -20 20 -23
20 -3 0 3 -9 13 -20z"/>
<path d="M1365 1140 c21 -16 43 -30 49 -30 6 0 -3 9 -20 19 -18 11 -35 24 -38
30 -4 6 -12 11 -18 11 -6 0 6 -13 27 -30z"/>
<path d="M1240 1151 c0 -7 -5 -9 -12 -5 -7 5 -8 3 -3 -5 5 -9 10 -10 18 -2 6
6 8 14 4 18 -4 3 -7 1 -7 -6z"/>
<path d="M1766 1122 c-22 -27 -24 -32 -7 -17 20 17 47 55 39 55 -2 0 -16 -17
-32 -38z"/>
<path d="M493 1143 c9 -2 23 -2 30 0 6 3 -1 5 -18 5 -16 0 -22 -2 -12 -5z"/>
<path d="M1478 1143 c7 -3 16 -2 19 1 4 3 -2 6 -13 5 -11 0 -14 -3 -6 -6z"/>
<path d="M2995 1139 c-4 -6 -5 -12 -2 -15 2 -3 7 2 10 11 7 17 1 20 -8 4z"/>
<path d="M1437 1129 c7 -7 15 -10 18 -7 3 3 -2 9 -12 12 -14 6 -15 5 -6 -5z"/>
<path d="M1578 1123 c7 -3 16 -2 19 1 4 3 -2 6 -13 5 -11 0 -14 -3 -6 -6z"/>
<path d="M1620 1115 c-14 -8 -20 -14 -14 -15 5 0 19 7 30 15 24 18 16 19 -16
0z"/>
<path d="M1719 1113 c-13 -16 -12 -17 4 -4 16 13 21 21 13 21 -2 0 -10 -8 -17
-17z"/>
<path d="M1795 1119 c-4 -6 -5 -12 -2 -15 2 -3 7 2 10 11 7 17 1 20 -8 4z"/>
<path d="M543 1113 c9 -2 25 -2 35 0 9 3 1 5 -18 5 -19 0 -27 -2 -17 -5z"/>
<path d="M1478 1113 c7 -3 16 -2 19 1 4 3 -2 6 -13 5 -11 0 -14 -3 -6 -6z"/>
<path d="M1290 1096 c0 -2 8 -10 18 -17 15 -13 16 -12 3 4 -13 16 -21 21 -21
13z"/>
<path d="M1679 1058 c-8 -27 -5 -36 9 -30 10 4 12 7 4 10 -7 2 -10 8 -6 13 3
5 3 9 0 9 -3 0 -6 -1 -7 -2z"/>
<path d="M3385 1041 c-3 -6 5 -15 17 -21 21 -10 22 -10 5 3 -14 11 -15 16 -5
20 9 4 9 6 1 6 -6 1 -14 -3 -18 -8z"/>
<path d="M859 1023 c-13 -16 -12 -17 4 -4 9 7 17 15 17 17 0 8 -8 3 -21 -13z"/>
<path d="M1140 1036 c0 -2 8 -10 18 -17 15 -13 16 -12 3 4 -13 16 -21 21 -21
13z"/>
<path d="M1290 1036 c0 -3 9 -10 20 -16 11 -6 20 -8 20 -6 0 3 -9 10 -20 16
-11 6 -20 8 -20 6z"/>
<path d="M760 1020 c-9 -6 -10 -10 -3 -10 6 0 15 5 18 10 8 12 4 12 -15 0z"/>
<path d="M889 1013 c-13 -16 -12 -17 4 -4 9 7 17 15 17 17 0 8 -8 3 -21 -13z"/>
<path d="M3016 1015 c-9 -26 -7 -32 5 -12 6 10 9 21 6 23 -2 3 -7 -2 -11 -11z"/>
<path d="M538 1013 c6 -2 18 -2 25 0 6 3 1 5 -13 5 -14 0 -19 -2 -12 -5z"/>
<path d="M1518 1013 c7 -3 16 -2 19 1 4 3 -2 6 -13 5 -11 0 -14 -3 -6 -6z"/>
<path d="M3306 1001 c-4 -5 3 -7 14 -4 23 6 26 13 6 13 -8 0 -17 -4 -20 -9z"/>
<path d="M954 958 l-19 -23 23 19 c21 18 27 26 19 26 -2 0 -12 -10 -23 -22z"/>
<path d="M3398 952 c15 -15 29 -26 31 -25 6 4 -41 53 -50 53 -4 0 4 -13 19
-28z"/>
<path d="M3535 959 c-4 -6 -5 -12 -2 -15 2 -3 7 2 10 11 7 17 1 20 -8 4z"/>
<path d="M3360 946 c0 -2 7 -7 16 -10 8 -3 12 -2 9 4 -6 10 -25 14 -25 6z"/>
<path d="M3231 904 c0 -11 3 -14 6 -6 3 7 2 16 -1 19 -3 4 -6 -2 -5 -13z"/>
<path d="M3325 899 c-4 -6 -5 -12 -2 -15 2 -3 7 2 10 11 7 17 1 20 -8 4z"/>
<path d="M3432 890 c0 -14 2 -19 5 -12 2 6 2 18 0 25 -3 6 -5 1 -5 -13z"/>
<path d="M3496 833 c-6 -14 -5 -15 5 -6 7 7 10 15 7 18 -3 3 -9 -2 -12 -12z"/>
<path d="M3368 793 c7 -3 16 -2 19 1 4 3 -2 6 -13 5 -11 0 -14 -3 -6 -6z"/>
<path d="M3449 773 c-13 -16 -12 -17 4 -4 16 13 21 21 13 21 -2 0 -10 -8 -17
-17z"/>
<path d="M3479 763 c-13 -16 -12 -17 4 -4 16 13 21 21 13 21 -2 0 -10 -8 -17
-17z"/>
<path d="M3110 706 c0 -2 8 -10 18 -17 15 -13 16 -12 3 4 -13 16 -21 21 -21
13z"/>
<path d="M3493 665 c4 -5 -3 -15 -15 -22 -13 -7 -18 -12 -12 -13 5 0 18 6 29
13 15 12 16 15 4 22 -8 5 -10 4 -6 0z"/>
<path d="M960 606 c0 -2 8 -10 18 -17 15 -13 16 -12 3 4 -13 16 -21 21 -21 13z"/>
<path d="M3495 590 c-3 -6 1 -7 9 -4 18 7 21 14 7 14 -6 0 -13 -4 -16 -10z"/>
<path d="M1958 403 c7 -3 16 -2 19 1 4 3 -2 6 -13 5 -11 0 -14 -3 -6 -6z"/>
</g>
</svg>
